<svg width="3186" height="306" viewBox="0 0 3186 306" fill="none" xmlns="http://www.w3.org/2000/svg">
<mask id="mask0_1_2" style="mask-type:luminance" maskUnits="userSpaceOnUse" x="0" y="12" width="3186" height="294">
<path d="M3186 12H0V306H3186V12Z" fill="white"/>
</mask>
<g mask="url(#mask0_1_2)">
<rect y="11" width="3186" height="306" fill="white"/>
<path d="M1020.92 271C1122.5 350.76 1146.54 408.87 1084.05 442.48C1034.71 469.02 938.36 473.71 798.65 457.48C511.17 424.09 111.57 302.92 -179 162.11C-477.79 17.29 -587.82 -110.44 -466.5 -155.67C-394.94 -182.35 -265.21 -179.5 -79.2499 -146.82C106.71 -114.14 303.09 -59.13 507.09 15.18C201.84 -102 -214.83 -207.35 -458.58 -198.23C-730.25 -188.07 -658.38 -38.17 -304.78 141.67C50.2101 322.22 556.54 469.11 871.39 490C1206.69 512.22 1196.32 395.16 1020.92 271Z" fill="#F5C256"/>
<path d="M-53.3198 -121.64C-336.48 -171.15 -518.12 -140.51 -409.13 -17.75C-302.46 102.39 50.1501 263.5 410.77 360.38C785.64 461.09 1054.24 462.8 1043.54 368.38C1032.86 274.14 764.66 128.91 496.54 30.48C722.37 118.88 879.81 203.17 949.62 280.7C1019.23 358 979 398.07 831.39 399.13C580.39 400.93 110.56 264.35 -177.99 108.23C-341.65 19.68 -412.29 -49.77 -386.76 -97.14C-361.23 -144.51 -244 -150.42 -53.3198 -121.64Z" fill="#3A5B89"/>
<path d="M861.67 346.89C776.81 384.66 534.67 344.68 297.67 267.36C59.3901 189.62 -139.91 85.11 -186.3 13.47C-233.69 -59.73 -119.79 -83.46 96.5901 -44.74C220.36 -22.6 350.67 13.88 485 63.72C619.1 113.48 723.21 164.59 800.67 216.72C798.19 210.82 727.02 167.94 673.35 140.37C621.92 113.94 564 88.17 500.67 63.14C437.34 38.11 372 15.05 304.55 -5.50998C138.21 -56.19 -5.05991 -85.75 -121.07 -91.82C-233.78 -97.73 -289.6 -80.21 -286.67 -39.57C-280.9 40.57 -25.0999 179.56 282.16 275.24C600.66 374.43 811.55 382.24 861.67 346.89Z" fill="#E86247"/>
<path d="M757.7 220.58C808.91 262.95 818.29 293.28 780.37 309.83C751.02 322.64 697.47 323.92 621.79 314.22C470.36 294.81 266.49 232.45 117 160.81C-45.4199 83 -101.18 18.35 -51.0899 -8.31998C-18.6599 -25.58 48.8 -26.06 149.12 -9.65998C249 6.67002 356.11 36 468.6 76.18C299.07 11.71 73.5301 -43 -50.2899 -34.28C-185 -24.8 -136.57 55.33 42.0001 146.39C226.27 240.33 493.7 319.67 665.25 332.72C842.78 346.23 850.6 288.55 757.7 220.58Z" fill="#3A5B89"/>
<path d="M702.51 274.22C739.82 257.14 706.35 204.22 559.42 135.14C408.9 64.38 206.72 9.40002 89.3601 8.00002C-26.7699 6.69002 -18.7399 57.55 97.0001 124.44C224.37 198.06 415.1 256.84 533.85 275.61C457.54 261.39 378.23 239.49 296.37 208.93C214.51 178.37 150.68 147.14 105.66 115.75C32.3201 64.64 38.6601 29 130.37 29.68C222.3 30.36 374.37 67.4 506.26 120.96C581.03 151.32 637.63 181.23 674.63 210.21C711.63 239.19 719.47 260.1 702.51 274.22Z" fill="#F5C256"/>
<path d="M466.1 123.45C549.1 157.45 602.51 188.45 618.84 215.45C630.62 234.89 616.84 245.45 578.94 247.03C503.19 250.18 354.13 211.98 241.09 157.03C177.69 126.21 145.86 100.37 145.76 80.92C145.66 61.47 179.76 56.37 240.31 62.62C206.2 57.4 180.56 56.74 161.12 59.25C128.47 63.47 119.42 75.89 133.64 96.15C161.19 135.39 280.12 193.15 407.64 229.29C540.28 266.9 641.18 271.76 645.42 240.35C649.59 209.24 556.59 157.19 466.1 123.45Z" fill="#E86247"/>
<path d="M414.71 125.93C362.44 107 282.36 88.16 242.88 94.12C209.56 99.12 212.63 122.29 291.88 161.26C353.67 191.62 442.7 217.75 502.03 222.26C563.97 227.01 564.78 206.47 538.15 186.44C557.7 205.94 552.31 217.03 516.21 217.44C490.31 217.74 455.32 211.7 413.12 199.93C330 176.8 252.89 138.5 245.26 114.46C237.84 91.08 311.43 91.71 414.71 125.93Z" fill="#3A5B89"/>
<path d="M1358.67 408.5L695.08 588.8L-521.46 -90.5L142.13 -270.81L1358.67 408.5Z" fill="url(#paint0_linear_1_2)"/>
<path d="M1724.68 -51.35C1610.84 -140.73 1583.9 -205.86 1653.93 -243.53C1709.22 -273.27 1817.21 -278.53 1973.79 -260.33C2296 -222.87 2743.84 -87.07 3069.46 70.74C3404.36 233.05 3527.67 376.21 3391.71 426.9C3311.5 456.8 3166.11 453.6 2957.71 416.98C2749.31 380.36 2529.21 318.7 2300.57 235.4C2642.68 366.79 3109.66 484.81 3382.84 474.59C3687.32 463.2 3606.77 295.21 3210.47 93.65C2812.62 -108.7 2245.15 -273.35 1892.29 -296.73C1516.48 -321.64 1528.1 -190.44 1724.68 -51.35Z" fill="#F5C256"/>
<path d="M2928.63 388.75C3245.98 444.24 3449.56 409.9 3327.41 272.32C3207.85 137.68 2812.67 -42.89 2408.51 -151.47C1988.37 -264.34 1687.34 -266.25 1699.33 -160.47C1711.33 -54.85 2011.88 107.92 2312.33 218.24C2059.26 119.17 1882.82 24.7 1804.58 -62.19C1726.58 -148.82 1771.58 -193.71 1937.09 -194.9C2218.43 -196.9 2744.97 -43.84 3068.35 131.1C3251.77 230.34 3330.95 308.19 3302.35 361.27C3273.75 414.35 3142.3 421 2928.63 388.75Z" fill="#3A5B89"/>
<path d="M1903.16 -136.35C1998.26 -178.68 2269.68 -133.88 2535.29 -47.22C2802.29 39.91 3025.68 157.04 3077.67 237.33C3130.78 319.33 3003.13 345.96 2760.62 302.57C2621.91 277.76 2475.86 236.87 2325.35 181.02C2175.07 125.24 2058.35 68.02 1971.56 9.57002C1974.35 16.19 2054.11 64.24 2114.26 95.14C2171.85 124.72 2236.79 153.61 2307.75 181.66C2378.71 209.71 2451.91 235.55 2527.55 258.6C2713.97 315.4 2874.55 348.53 3004.55 355.34C3130.88 361.95 3193.44 342.34 3190.15 296.77C3183.69 207 2897 51.18 2552.64 -56C2195.68 -167.21 1959.33 -176 1903.16 -136.35Z" fill="#E86247"/>
<path d="M2019.68 5.21001C1962.29 -42.27 1951.78 -76.27 1994.27 -94.79C2027.17 -109.15 2087.19 -110.58 2172 -99.71C2341.71 -78 2570.21 -8.09999 2737.74 72.2C2919.74 159.44 2982.27 231.86 2926.13 261.75C2889.78 281.1 2814.13 281.64 2701.75 263.25C2589.82 244.95 2469.75 212.13 2343.69 167.05C2533.69 239.3 2786.47 300.61 2925.24 290.85C3076.24 280.23 3021.93 190.41 2821.75 88.36C2615.24 -16.93 2315.52 -105.84 2123.25 -120.47C1924.34 -135.61 1915.57 -71 2019.68 5.21001Z" fill="#3A5B89"/>
<path d="M2081.54 -54.91C2039.72 -35.76 2077.23 23.54 2241.91 100.96C2410.6 180.27 2637.19 241.89 2768.72 243.42C2898.88 244.93 2889.88 187.93 2760.19 112.96C2617.45 30.45 2403.69 -35.43 2270.59 -56.46C2356.13 -40.53 2445 -16 2536.75 18.27C2628.34 52.46 2700 87.52 2750.48 122.7C2832.65 179.98 2825.54 219.93 2722.76 219.17C2619.76 218.4 2449.33 176.89 2301.48 116.86C2217.68 82.86 2154.25 49.31 2112.78 16.86C2071.31 -15.59 2062.53 -39.08 2081.54 -54.91Z" fill="#F5C256"/>
<path d="M2346.49 114.07C2253.43 76 2193.62 41.22 2175.31 11C2162.11 -10.8 2177.56 -22.63 2220.02 -24.4C2304.92 -27.92 2472.02 14.88 2598.68 76.48C2669.73 111.02 2705.41 139.98 2705.51 161.78C2705.61 183.58 2667.41 189.3 2599.51 182.29C2637.73 188.14 2666.51 188.88 2688.26 186.06C2724.85 181.34 2734.99 167.42 2719.05 144.72C2688.18 100.72 2554.89 36.01 2412.05 -4.49999C2263.39 -46.66 2150.3 -52.1 2145.55 -16.9C2140.85 17.92 2245.08 76.26 2346.49 114.07Z" fill="#E86247"/>
<path d="M2404.09 111.29C2462.67 132.57 2552.42 153.63 2596.66 146.94C2634.01 141.3 2630.57 115.36 2541.72 71.7C2472.47 37.7 2372.72 8.38 2306.19 3.28C2236.77 -2 2235.86 21 2265.71 43.43C2243.8 21.57 2249.84 9.14 2290.29 8.68C2319.29 8.34 2358.54 15.11 2405.83 28.29C2499.02 54.29 2585.45 97.2 2594 124.15C2602.31 150.34 2519.84 149.64 2404.09 111.29Z" fill="#3A5B89"/>
<path d="M1394.02 -212.18L2359.43 -474.49L3722.87 286.84L2757.45 549.15L1394.02 -212.18Z" fill="url(#paint1_linear_1_2)"/>
</g>
<path d="M795.641 114.438L782.33 145.189H775.301L762.034 114.438H769.722L779.079 136.403L788.568 114.438H795.641ZM798.208 114.438H805.325V145.189H798.208V114.438ZM812.623 114.438H819.739V145.189H812.623V114.438ZM827.037 114.438H834.154V145.189H827.037V114.438ZM868.61 145.717C865.476 145.717 862.635 145.043 860.087 143.696C857.568 142.319 855.577 140.43 854.113 138.029C852.678 135.598 851.96 132.86 851.96 129.814C851.96 126.768 852.678 124.044 854.113 121.643C855.577 119.212 857.568 117.323 860.087 115.976C862.635 114.6 865.49 113.911 868.653 113.911C871.319 113.911 873.72 114.38 875.858 115.317C878.025 116.254 879.841 117.601 881.305 119.359L876.737 123.576C874.657 121.174 872.08 119.974 869.005 119.974C867.101 119.974 865.403 120.398 863.909 121.248C862.415 122.068 861.244 123.224 860.395 124.718C859.575 126.212 859.165 127.91 859.165 129.814C859.165 131.718 859.575 133.416 860.395 134.91C861.244 136.403 862.415 137.575 863.909 138.424C865.403 139.244 867.101 139.654 869.005 139.654C872.08 139.654 874.657 138.439 876.737 136.008L881.305 140.225C879.841 142.012 878.025 143.374 875.858 144.311C873.691 145.248 871.275 145.717 868.61 145.717ZM913.971 114.438V145.189H906.898V120.237H893.016V145.189H885.944V114.438H913.971ZM942.417 138.6H928.139L925.416 145.189H918.123L931.83 114.438H938.858L952.608 145.189H945.14L942.417 138.6ZM940.176 133.197L935.3 121.423L930.424 133.197H940.176ZM969.997 114.438C972.721 114.438 975.078 114.892 977.07 115.8C979.091 116.708 980.643 117.997 981.727 119.666C982.81 121.335 983.352 123.312 983.352 125.597C983.352 127.852 982.81 129.829 981.727 131.527C980.643 133.197 979.091 134.485 977.07 135.393C975.078 136.272 972.721 136.711 969.997 136.711H963.803V145.189H956.686V114.438H969.997ZM969.602 130.912C971.74 130.912 973.365 130.458 974.478 129.55C975.591 128.613 976.147 127.295 976.147 125.597C976.147 123.869 975.591 122.551 974.478 121.643C973.365 120.706 971.74 120.237 969.602 120.237H963.803V130.912H969.602ZM1010.69 120.237H1000.85V145.189H993.822V120.237H984.026V114.438H1010.69V120.237ZM1034.44 138.6H1020.16L1017.44 145.189H1010.14L1023.85 114.438H1030.88L1044.63 145.189H1037.16L1034.44 138.6ZM1032.2 133.197L1027.32 121.423L1022.45 133.197H1032.2ZM1060.61 132.801H1055.69V145.189H1048.62V114.438H1055.69V126.871H1060.79L1068.87 114.438H1076.38L1066.32 129.287L1076.69 145.189H1068.61L1060.61 132.801ZM1080.03 114.438H1087.1V134.471L1101.77 114.438H1108.45V145.189H1101.42V125.201L1086.75 145.189H1080.03V114.438ZM1136.93 138.6H1122.65L1119.93 145.189H1112.63L1126.34 114.438H1133.37L1147.12 145.189H1139.65L1136.93 138.6ZM1134.69 133.197L1129.81 121.423L1124.93 133.197H1134.69ZM1183.17 139.391V151.559H1176.58V145.189H1154.88V151.559H1148.29L1148.34 139.391H1149.57C1151.41 139.332 1152.71 137.985 1153.47 135.349C1154.24 132.713 1154.71 128.95 1154.88 124.059L1155.23 114.438H1178.87V139.391H1183.17ZM1161.16 124.718C1161.02 128.379 1160.71 131.454 1160.24 133.943C1159.77 136.403 1159.05 138.219 1158.09 139.391H1171.84V120.237H1161.29L1161.16 124.718ZM1209.04 138.6H1194.77L1192.04 145.189H1184.75L1198.46 114.438H1205.48L1219.23 145.189H1211.77L1209.04 138.6ZM1206.8 133.197L1201.93 121.423L1197.05 133.197H1206.8Z" fill="#E86247"/>
<path d="M1250.29 145.717C1247.16 145.717 1244.32 145.043 1241.77 143.696C1239.25 142.319 1237.26 140.43 1235.8 138.029C1234.36 135.598 1233.64 132.86 1233.64 129.814C1233.64 126.768 1234.36 124.044 1235.8 121.643C1237.26 119.212 1239.25 117.323 1241.77 115.976C1244.32 114.6 1247.18 113.911 1250.34 113.911C1253 113.911 1255.4 114.38 1257.54 115.317C1259.71 116.254 1261.53 117.601 1262.99 119.359L1258.42 123.576C1256.34 121.174 1253.76 119.974 1250.69 119.974C1248.79 119.974 1247.09 120.398 1245.59 121.248C1244.1 122.068 1242.93 123.224 1242.08 124.718C1241.26 126.212 1240.85 127.91 1240.85 129.814C1240.85 131.718 1241.26 133.416 1242.08 134.91C1242.93 136.403 1244.1 137.575 1245.59 138.424C1247.09 139.244 1248.79 139.654 1250.69 139.654C1253.76 139.654 1256.34 138.439 1258.42 136.008L1262.99 140.225C1261.53 142.012 1259.71 143.374 1257.54 144.311C1255.38 145.248 1252.96 145.717 1250.29 145.717ZM1280.94 114.438C1283.66 114.438 1286.02 114.892 1288.01 115.8C1290.03 116.708 1291.58 117.997 1292.67 119.666C1293.75 121.335 1294.29 123.312 1294.29 125.597C1294.29 127.852 1293.75 129.829 1292.67 131.527C1291.58 133.197 1290.03 134.485 1288.01 135.393C1286.02 136.272 1283.66 136.711 1280.94 136.711H1274.75V145.189H1267.63V114.438H1280.94ZM1280.54 130.912C1282.68 130.912 1284.31 130.458 1285.42 129.55C1286.53 128.613 1287.09 127.295 1287.09 125.597C1287.09 123.869 1286.53 122.551 1285.42 121.643C1284.31 120.706 1282.68 120.237 1280.54 120.237H1274.75V130.912H1280.54ZM1322.8 139.479V145.189H1298.99V114.438H1322.23V120.149H1306.06V126.827H1320.34V132.362H1306.06V139.479H1322.8ZM1360.26 139.391V151.559H1353.67V145.189H1331.97V151.559H1325.38L1325.43 139.391H1326.66C1328.5 139.332 1329.81 137.985 1330.57 135.349C1331.33 132.713 1331.8 128.95 1331.97 124.059L1332.32 114.438H1355.96V139.391H1360.26ZM1338.26 124.718C1338.11 128.379 1337.8 131.454 1337.33 133.943C1336.86 136.403 1336.15 138.219 1335.18 139.391H1348.93V120.237H1338.39L1338.26 124.718ZM1365.06 114.438H1372.13V134.471L1386.8 114.438H1393.48V145.189H1386.45V125.201L1371.78 145.189H1365.06V114.438ZM1426.89 114.438C1429.61 114.438 1431.97 114.892 1433.96 115.8C1435.98 116.708 1437.53 117.997 1438.62 119.666C1439.7 121.335 1440.24 123.312 1440.24 125.597C1440.24 127.852 1439.7 129.829 1438.62 131.527C1437.53 133.197 1435.98 134.485 1433.96 135.393C1431.97 136.272 1429.61 136.711 1426.89 136.711H1420.69V145.189H1413.58V114.438H1426.89ZM1426.49 130.912C1428.63 130.912 1430.25 130.458 1431.37 129.55C1432.48 128.613 1433.04 127.295 1433.04 125.597C1433.04 123.869 1432.48 122.551 1431.37 121.643C1430.25 120.706 1428.63 120.237 1426.49 120.237H1420.69V130.912H1426.49ZM1464.21 138.6H1449.94L1447.21 145.189H1439.92L1453.63 114.438H1460.66L1474.41 145.189H1466.94L1464.21 138.6ZM1461.97 133.197L1457.1 121.423L1452.22 133.197H1461.97ZM1478.48 114.438H1503.3V120.105H1485.56V126.431H1494.08C1497.8 126.431 1500.62 127.207 1502.56 128.76C1504.52 130.312 1505.5 132.552 1505.5 135.481C1505.5 138.556 1504.42 140.943 1502.25 142.642C1500.08 144.34 1497.02 145.189 1493.07 145.189H1478.48V114.438ZM1492.67 139.918C1494.49 139.918 1495.88 139.566 1496.85 138.864C1497.81 138.131 1498.3 137.077 1498.3 135.701C1498.3 133.006 1496.42 131.659 1492.67 131.659H1485.56V139.918H1492.67ZM1525.59 145.717C1522.4 145.717 1519.51 145.028 1516.93 143.652C1514.39 142.275 1512.38 140.386 1510.92 137.985C1509.48 135.554 1508.76 132.83 1508.76 129.814C1508.76 126.797 1509.48 124.088 1510.92 121.687C1512.38 119.256 1514.39 117.352 1516.93 115.976C1519.51 114.6 1522.4 113.911 1525.59 113.911C1528.78 113.911 1531.65 114.6 1534.2 115.976C1536.75 117.352 1538.75 119.256 1540.22 121.687C1541.68 124.088 1542.41 126.797 1542.41 129.814C1542.41 132.83 1541.68 135.554 1540.22 137.985C1538.75 140.386 1536.75 142.275 1534.2 143.652C1531.65 145.028 1528.78 145.717 1525.59 145.717ZM1525.59 139.654C1527.4 139.654 1529.05 139.244 1530.51 138.424C1531.97 137.575 1533.12 136.403 1533.94 134.91C1534.79 133.416 1535.21 131.718 1535.21 129.814C1535.21 127.91 1534.79 126.212 1533.94 124.718C1533.12 123.224 1531.97 122.068 1530.51 121.248C1529.05 120.398 1527.4 119.974 1525.59 119.974C1523.77 119.974 1522.13 120.398 1520.67 121.248C1519.2 122.068 1518.05 123.224 1517.2 124.718C1516.38 126.212 1515.97 127.91 1515.97 129.814C1515.97 131.718 1516.38 133.416 1517.2 134.91C1518.05 136.403 1519.2 137.575 1520.67 138.424C1522.13 139.244 1523.77 139.654 1525.59 139.654ZM1570.97 120.237H1561.13V145.189H1554.1V120.237H1544.3V114.438H1570.97V120.237ZM1603.64 114.438V145.189H1596.53V132.582H1582.56V145.189H1575.44V114.438H1582.56V126.563H1596.53V114.438H1603.64ZM1611.35 114.438H1618.42V134.471L1633.09 114.438H1639.77V145.189H1632.74V125.201L1618.07 145.189H1611.35V114.438ZM1659.33 132.801H1654.41V145.189H1647.34V114.438H1654.41V126.871H1659.51L1667.59 114.438H1675.1L1665.04 129.287L1675.41 145.189H1667.33L1659.33 132.801ZM1693.29 145.717C1690.09 145.717 1687.21 145.028 1684.63 143.652C1682.08 142.275 1680.08 140.386 1678.61 137.985C1677.18 135.554 1676.46 132.83 1676.46 129.814C1676.46 126.797 1677.18 124.088 1678.61 121.687C1680.08 119.256 1682.08 117.352 1684.63 115.976C1687.21 114.6 1690.09 113.911 1693.29 113.911C1696.48 113.911 1699.35 114.6 1701.9 115.976C1704.45 117.352 1706.45 119.256 1707.92 121.687C1709.38 124.088 1710.11 126.797 1710.11 129.814C1710.11 132.83 1709.38 135.554 1707.92 137.985C1706.45 140.386 1704.45 142.275 1701.9 143.652C1699.35 145.028 1696.48 145.717 1693.29 145.717ZM1693.29 139.654C1695.1 139.654 1696.74 139.244 1698.21 138.424C1699.67 137.575 1700.81 136.403 1701.63 134.91C1702.48 133.416 1702.91 131.718 1702.91 129.814C1702.91 127.91 1702.48 126.212 1701.63 124.718C1700.81 123.224 1699.67 122.068 1698.21 121.248C1696.74 120.398 1695.1 119.974 1693.29 119.974C1691.47 119.974 1689.83 120.398 1688.37 121.248C1686.9 122.068 1685.75 123.224 1684.9 124.718C1684.08 126.212 1683.67 127.91 1683.67 129.814C1683.67 131.718 1684.08 133.416 1684.9 134.91C1685.75 136.403 1686.9 137.575 1688.37 138.424C1689.83 139.244 1691.47 139.654 1693.29 139.654ZM1736.9 129.155C1738.77 129.711 1740.21 130.619 1741.21 131.879C1742.2 133.138 1742.7 134.69 1742.7 136.535C1742.7 139.259 1741.66 141.382 1739.58 142.905C1737.53 144.428 1734.59 145.189 1730.75 145.189H1715.59V114.438H1729.92C1733.49 114.438 1736.27 115.127 1738.26 116.503C1740.25 117.88 1741.25 119.842 1741.25 122.39C1741.25 123.913 1740.87 125.26 1740.11 126.431C1739.35 127.574 1738.28 128.481 1736.9 129.155ZM1722.67 127.178H1729.3C1730.85 127.178 1732.02 126.871 1732.81 126.256C1733.61 125.611 1734 124.674 1734 123.444C1734 122.243 1733.59 121.321 1732.77 120.677C1731.98 120.032 1730.82 119.71 1729.3 119.71H1722.67V127.178ZM1730.49 139.918C1733.83 139.918 1735.49 138.6 1735.49 135.964C1735.49 133.416 1733.83 132.142 1730.49 132.142H1722.67V139.918H1730.49Z" fill="#002B5F"/>
<path d="M787.909 172.957H773.28L773.324 197.909H766.252V167.158H787.953L787.909 172.957ZM805.603 167.158C808.327 167.158 810.684 167.612 812.676 168.52C814.696 169.428 816.249 170.717 817.332 172.386C818.416 174.055 818.958 176.032 818.958 178.317C818.958 180.572 818.416 182.549 817.332 184.247C816.249 185.917 814.696 187.205 812.676 188.113C810.684 188.992 808.327 189.431 805.603 189.431H799.409V197.909H792.292V167.158H805.603ZM805.208 183.632C807.345 183.632 808.971 183.178 810.084 182.27C811.197 181.333 811.753 180.015 811.753 178.317C811.753 176.589 811.197 175.271 810.084 174.363C808.971 173.426 807.345 172.957 805.208 172.957H799.409V183.632H805.208ZM850.73 167.158L837.639 191.496C836.379 193.839 834.856 195.61 833.07 196.811C831.313 198.012 829.394 198.612 827.315 198.612C825.704 198.612 824.035 198.261 822.307 197.558L824.02 192.155C825.25 192.535 826.275 192.726 827.095 192.726C827.974 192.726 828.765 192.521 829.468 192.111C830.17 191.671 830.815 190.998 831.4 190.09L831.664 189.739L819.539 167.158H827.139L835.31 183.676L843.745 167.158H850.73ZM882.139 167.158V197.909H875.066V172.957H861.184V197.909H854.112V167.158H882.139ZM917.789 167.158V197.909H910.716V172.957H896.835V197.909H889.762V167.158H917.789ZM940.304 177.262C944.053 177.262 946.923 178.097 948.915 179.766C950.935 181.436 951.946 183.91 951.946 187.191C951.946 190.676 950.833 193.341 948.607 195.186C946.411 197.002 943.306 197.909 939.294 197.909H925.412V167.158H932.485V177.262H940.304ZM938.899 192.638C940.744 192.638 942.179 192.184 943.204 191.276C944.258 190.368 944.785 189.05 944.785 187.322C944.785 184.13 942.823 182.534 938.899 182.534H932.485V192.638H938.899ZM955.856 167.158H962.928V197.909H955.856V167.158ZM994.932 185.521H990.012V197.909H982.939V167.158H990.012V179.591H995.108L1003.19 167.158H1010.7L1000.64 182.007L1011.01 197.909H1002.93L994.932 185.521ZM1028.89 198.437C1025.7 198.437 1022.81 197.748 1020.23 196.372C1017.69 194.995 1015.68 193.106 1014.22 190.705C1012.78 188.274 1012.06 185.551 1012.06 182.534C1012.06 179.517 1012.78 176.808 1014.22 174.407C1015.68 171.976 1017.69 170.073 1020.23 168.696C1022.81 167.32 1025.7 166.631 1028.89 166.631C1032.08 166.631 1034.95 167.32 1037.5 168.696C1040.05 170.073 1042.05 171.976 1043.52 174.407C1044.98 176.808 1045.71 179.517 1045.71 182.534C1045.71 185.551 1044.98 188.274 1043.52 190.705C1042.05 193.106 1040.05 194.995 1037.5 196.372C1034.95 197.748 1032.08 198.437 1028.89 198.437ZM1028.89 192.374C1030.7 192.374 1032.34 191.964 1033.81 191.144C1035.27 190.295 1036.42 189.123 1037.24 187.63C1038.08 186.136 1038.51 184.438 1038.51 182.534C1038.51 180.63 1038.08 178.932 1037.24 177.438C1036.42 175.944 1035.27 174.788 1033.81 173.968C1032.34 173.118 1030.7 172.694 1028.89 172.694C1027.07 172.694 1025.43 173.118 1023.97 173.968C1022.5 174.788 1021.35 175.944 1020.5 177.438C1019.68 178.932 1019.27 180.63 1019.27 182.534C1019.27 184.438 1019.68 186.136 1020.5 187.63C1021.35 189.123 1022.5 190.295 1023.97 191.144C1025.43 191.964 1027.07 192.374 1028.89 192.374ZM1079.18 197.909L1079.14 179.503L1070.09 194.659H1066.92L1057.87 179.854V197.909H1051.2V167.158H1057.08L1068.59 186.268L1079.93 167.158H1085.81L1085.86 197.909H1079.18ZM1121.52 167.158V197.909H1114.45V172.957H1100.57V197.909H1093.5V167.158H1121.52ZM1149.97 191.32H1135.69L1132.97 197.909H1125.68L1139.38 167.158H1146.41L1160.16 197.909H1152.69L1149.97 191.32ZM1147.73 185.917L1142.85 174.143L1137.98 185.917H1147.73ZM1192.44 167.158V197.909H1185.32V185.302H1171.36V197.909H1164.24V167.158H1171.36V179.283H1185.32V167.158H1192.44ZM1200.15 167.158H1207.22V187.191L1221.89 167.158H1228.57V197.909H1221.54V177.921L1206.87 197.909H1200.15V167.158ZM1236.23 167.158H1243.3V187.191L1257.97 167.158H1264.65V197.909H1257.62V177.921L1242.95 197.909H1236.23V167.158ZM1250.41 165.182C1244.79 165.182 1241.95 162.941 1241.89 158.46H1246.77C1246.83 160.598 1248.04 161.667 1250.41 161.667C1251.59 161.667 1252.48 161.404 1253.09 160.876C1253.71 160.32 1254.03 159.515 1254.06 158.46H1258.94C1258.91 160.657 1258.19 162.326 1256.78 163.468C1255.38 164.611 1253.26 165.182 1250.41 165.182ZM1305.57 191.32H1291.29L1288.57 197.909H1281.28L1294.98 167.158H1302.01L1315.76 197.909H1308.29L1305.57 191.32ZM1303.33 185.917L1298.45 174.143L1293.58 185.917H1303.33ZM1334.08 198.437C1330.89 198.437 1328 197.748 1325.43 196.372C1322.88 194.995 1320.87 193.106 1319.41 190.705C1317.97 188.274 1317.26 185.551 1317.26 182.534C1317.26 179.517 1317.97 176.808 1319.41 174.407C1320.87 171.976 1322.88 170.073 1325.43 168.696C1328 167.32 1330.89 166.631 1334.08 166.631C1337.27 166.631 1340.14 167.32 1342.69 168.696C1345.24 170.073 1347.25 171.976 1348.71 174.407C1350.17 176.808 1350.91 179.517 1350.91 182.534C1350.91 185.551 1350.17 188.274 1348.71 190.705C1347.25 193.106 1345.24 194.995 1342.69 196.372C1340.14 197.748 1337.27 198.437 1334.08 198.437ZM1334.08 192.374C1335.9 192.374 1337.54 191.964 1339 191.144C1340.47 190.295 1341.61 189.123 1342.43 187.63C1343.28 186.136 1343.7 184.438 1343.7 182.534C1343.7 180.63 1343.28 178.932 1342.43 177.438C1341.61 175.944 1340.47 174.788 1339 173.968C1337.54 173.118 1335.9 172.694 1334.08 172.694C1332.27 172.694 1330.63 173.118 1329.16 173.968C1327.7 174.788 1326.54 175.944 1325.69 177.438C1324.87 178.932 1324.46 180.63 1324.46 182.534C1324.46 184.438 1324.87 186.136 1325.69 187.63C1326.54 189.123 1327.7 190.295 1329.16 191.144C1330.63 191.964 1332.27 192.374 1334.08 192.374ZM1366.59 186.092L1372.78 177.482H1378.93L1372.92 186.092L1378.93 194.659H1372.78L1366.59 186.092ZM1376.52 186.092L1382.71 177.482H1388.86L1382.84 186.092L1388.86 194.659H1382.71L1376.52 186.092ZM1408.34 198.437C1405.21 198.437 1402.36 197.763 1399.82 196.416C1397.3 195.039 1395.31 193.15 1393.84 190.749C1392.41 188.318 1391.69 185.58 1391.69 182.534C1391.69 179.488 1392.41 176.765 1393.84 174.363C1395.31 171.932 1397.3 170.043 1399.82 168.696C1402.36 167.32 1405.22 166.631 1408.38 166.631C1411.05 166.631 1413.45 167.1 1415.59 168.037C1417.76 168.974 1419.57 170.321 1421.04 172.079L1416.47 176.296C1414.39 173.894 1411.81 172.694 1408.73 172.694C1406.83 172.694 1405.13 173.118 1403.64 173.968C1402.15 174.788 1400.97 175.944 1400.12 177.438C1399.3 178.932 1398.89 180.63 1398.89 182.534C1398.89 184.438 1399.3 186.136 1400.12 187.63C1400.97 189.123 1402.15 190.295 1403.64 191.144C1405.13 191.964 1406.83 192.374 1408.73 192.374C1411.81 192.374 1414.39 191.159 1416.47 188.728L1421.04 192.945C1419.57 194.732 1417.76 196.094 1415.59 197.031C1413.42 197.968 1411 198.437 1408.34 198.437ZM1445.9 191.32H1431.62L1428.89 197.909H1421.6L1435.31 167.158H1442.34L1456.09 197.909H1448.62L1445.9 191.32ZM1443.66 185.917L1438.78 174.143L1433.9 185.917H1443.66ZM1488.15 197.909L1488.1 179.503L1479.06 194.659H1475.89L1466.84 179.854V197.909H1460.17V167.158H1466.05L1477.56 186.268L1488.9 167.158H1494.78L1494.83 197.909H1488.15ZM1515.78 167.158C1518.5 167.158 1520.86 167.612 1522.85 168.52C1524.87 169.428 1526.42 170.717 1527.51 172.386C1528.59 174.055 1529.13 176.032 1529.13 178.317C1529.13 180.572 1528.59 182.549 1527.51 184.247C1526.42 185.917 1524.87 187.205 1522.85 188.113C1520.86 188.992 1518.5 189.431 1515.78 189.431H1509.58V197.909H1502.47V167.158H1515.78ZM1515.38 183.632C1517.52 183.632 1519.14 183.178 1520.26 182.27C1521.37 181.333 1521.93 180.015 1521.93 178.317C1521.93 176.589 1521.37 175.271 1520.26 174.363C1519.14 173.426 1517.52 172.957 1515.38 172.957H1509.58V183.632H1515.38ZM1560.9 167.158L1547.81 191.496C1546.55 193.839 1545.03 195.61 1543.24 196.811C1541.49 198.012 1539.57 198.612 1537.49 198.612C1535.88 198.612 1534.21 198.261 1532.48 197.558L1534.19 192.155C1535.42 192.535 1536.45 192.726 1537.27 192.726C1538.15 192.726 1538.94 192.521 1539.64 192.111C1540.34 191.671 1540.99 190.998 1541.57 190.09L1541.84 189.739L1529.71 167.158H1537.31L1545.48 183.676L1553.92 167.158H1560.9ZM1576.19 185.521H1571.27V197.909H1564.2V167.158H1571.27V179.591H1576.37L1584.45 167.158H1591.96L1581.9 182.007L1592.27 197.909H1584.18L1576.19 185.521ZM1594.11 182.798H1606.54V188.289H1594.11V182.798ZM1624.5 185.521H1619.58V197.909H1612.5V167.158H1619.58V179.591H1624.67L1632.75 167.158H1640.27L1630.21 182.007L1640.57 197.909H1632.49L1624.5 185.521ZM1642.02 192.111V204.279H1635.48V197.909H1632.49V192.111H1642.02ZM1665.76 191.32H1651.48L1648.76 197.909H1641.47L1655.17 167.158H1662.2L1675.95 197.909H1668.48L1665.76 191.32ZM1663.52 185.917L1658.64 174.143L1653.77 185.917H1663.52ZM1697.51 181.875C1699.3 182.49 1700.69 183.457 1701.69 184.774C1702.71 186.063 1703.22 187.571 1703.22 189.299C1703.22 191.174 1702.61 192.799 1701.38 194.175C1700.15 195.552 1698.48 196.606 1696.37 197.338C1694.29 198.071 1692.01 198.437 1689.52 198.437C1687.41 198.437 1685.3 198.173 1683.19 197.646C1681.11 197.119 1679.14 196.313 1677.26 195.23L1679.46 190.134C1680.81 190.954 1682.28 191.584 1683.9 192.023C1685.54 192.433 1687.13 192.638 1688.68 192.638C1690.79 192.638 1692.54 192.257 1693.91 191.496C1695.32 190.734 1696.02 189.665 1696.02 188.289C1696.02 187.147 1695.54 186.283 1694.57 185.697C1693.63 185.111 1692.34 184.818 1690.7 184.818H1683.19V179.459H1690.18C1691.61 179.459 1692.73 179.166 1693.52 178.58C1694.34 177.995 1694.75 177.189 1694.75 176.164C1694.75 174.963 1694.16 174.026 1692.99 173.353C1691.85 172.679 1690.37 172.342 1688.55 172.342C1687.21 172.342 1685.81 172.533 1684.38 172.913C1682.94 173.265 1681.58 173.807 1680.29 174.539L1678.14 169.004C1681.39 167.334 1684.91 166.5 1688.68 166.5C1691.09 166.5 1693.3 166.851 1695.32 167.554C1697.34 168.257 1698.95 169.282 1700.15 170.629C1701.35 171.976 1701.95 173.543 1701.95 175.329C1701.95 176.794 1701.56 178.097 1700.76 179.239C1699.97 180.381 1698.89 181.26 1697.51 181.875ZM1723.75 177.262C1727.5 177.262 1730.37 178.097 1732.36 179.766C1734.38 181.436 1735.39 183.91 1735.39 187.191C1735.39 190.676 1734.28 193.341 1732.05 195.186C1729.86 197.002 1726.75 197.909 1722.74 197.909H1708.86V167.158H1715.93V177.262H1723.75ZM1722.35 192.638C1724.19 192.638 1725.63 192.184 1726.65 191.276C1727.7 190.368 1728.23 189.05 1728.23 187.322C1728.23 184.13 1726.27 182.534 1722.35 182.534H1715.93V192.638H1722.35ZM1739.3 167.158H1746.38V197.909H1739.3V167.158ZM1782.24 167.158V197.909H1775.12V185.302H1761.15V197.909H1754.03V167.158H1761.15V179.283H1775.12V167.158H1782.24ZM1810.76 191.32H1796.49L1793.76 197.909H1786.47L1800.18 167.158H1807.21L1820.96 197.909H1813.49L1810.76 191.32ZM1808.52 185.917L1803.65 174.143L1798.77 185.917H1808.52ZM1822.61 194.659L1828.63 186.092L1822.61 177.482H1828.76L1834.95 186.092L1828.76 194.659H1822.61ZM1832.54 194.659L1838.56 186.092L1832.54 177.482H1838.69L1844.88 186.092L1838.69 194.659H1832.54Z" fill="#002B5F"/>
<path d="M2656.42 87.8398H2014.79C1999.44 87.8398 1987 100.282 1987 115.63V189.21C1987 204.558 1999.44 217 2014.79 217H2656.42C2671.77 217 2684.21 204.558 2684.21 189.21V115.63C2684.21 100.282 2671.77 87.8398 2656.42 87.8398Z" fill="url(#paint2_linear_1_2)"/>
<path d="M2054.44 176.59V126.162H2077.49C2082.11 126.162 2086.07 126.906 2089.38 128.395C2092.74 129.884 2095.34 132.045 2097.16 134.879C2098.99 137.664 2099.9 140.978 2099.9 144.82C2099.9 148.614 2098.99 151.904 2097.16 154.69C2095.34 157.475 2092.74 159.636 2089.38 161.173C2086.07 162.662 2082.11 163.407 2077.49 163.407H2062.37L2068.71 157.211V176.59H2054.44ZM2068.71 158.724L2062.37 152.168H2076.63C2079.61 152.168 2081.82 151.52 2083.26 150.223C2084.75 148.926 2085.49 147.125 2085.49 144.82C2085.49 142.467 2084.75 140.642 2083.26 139.345C2081.82 138.048 2079.61 137.4 2076.63 137.4H2062.37L2068.71 130.844V158.724ZM2119.47 145.685H2142.89V156.347H2119.47V145.685ZM2120.48 165.568H2146.85V176.59H2106.36V126.162H2145.91V137.184H2120.48V165.568ZM2154.97 176.59V126.162H2191.93L2191.86 137.472H2165.85L2169.02 134.302V176.59H2154.97ZM2198.31 176.59V126.162H2212.36V155.77L2233.18 126.162H2246.58V176.59H2232.53V147.053L2211.78 176.59H2198.31ZM2281.97 177.598C2277.99 177.598 2274.29 176.974 2270.88 175.725C2267.52 174.429 2264.59 172.604 2262.09 170.25C2259.64 167.897 2257.72 165.135 2256.33 161.966C2254.93 158.748 2254.24 155.218 2254.24 151.376C2254.24 147.534 2254.93 144.028 2256.33 140.858C2257.72 137.64 2259.64 134.855 2262.09 132.501C2264.59 130.148 2267.52 128.347 2270.88 127.098C2274.29 125.802 2277.99 125.153 2281.97 125.153C2286.63 125.153 2290.78 125.97 2294.43 127.603C2298.13 129.236 2301.21 131.589 2303.66 134.663L2294.58 142.875C2292.95 140.954 2291.15 139.489 2289.18 138.481C2287.25 137.472 2285.09 136.968 2282.69 136.968C2280.63 136.968 2278.73 137.304 2277 137.976C2275.27 138.649 2273.78 139.633 2272.53 140.93C2271.33 142.179 2270.37 143.692 2269.65 145.469C2268.98 147.246 2268.64 149.215 2268.64 151.376C2268.64 153.537 2268.98 155.506 2269.65 157.283C2270.37 159.06 2271.33 160.597 2272.53 161.894C2273.78 163.142 2275.27 164.103 2277 164.775C2278.73 165.448 2280.63 165.784 2282.69 165.784C2285.09 165.784 2287.25 165.28 2289.18 164.271C2291.15 163.262 2292.95 161.798 2294.58 159.877L2303.66 168.089C2301.21 171.115 2298.13 173.468 2294.43 175.149C2290.78 176.782 2286.63 177.598 2281.97 177.598ZM2320.84 176.59V134.302L2324.01 137.472H2305.36V126.162H2350.31V137.472H2331.72L2334.89 134.302V176.59H2320.84ZM2356.88 176.59V126.162H2379.94C2384.55 126.162 2388.51 126.906 2391.82 128.395C2395.18 129.884 2397.78 132.045 2399.6 134.879C2401.43 137.664 2402.34 140.978 2402.34 144.82C2402.34 148.614 2401.43 151.904 2399.6 154.69C2397.78 157.475 2395.18 159.636 2391.82 161.173C2388.51 162.662 2384.55 163.407 2379.94 163.407H2364.81L2371.15 157.211V176.59H2356.88ZM2371.15 158.724L2364.81 152.168H2379.07C2382.05 152.168 2384.26 151.52 2385.7 150.223C2387.19 148.926 2387.93 147.125 2387.93 144.82C2387.93 142.467 2387.19 140.642 2385.7 139.345C2384.26 138.048 2382.05 137.4 2379.07 137.4H2364.81L2371.15 130.844V158.724ZM2401.23 176.59L2423.49 126.162H2437.54L2459.87 176.59H2445.03L2427.59 133.15H2433.21L2415.78 176.59H2401.23ZM2413.4 166.792L2417.08 156.275H2441.71L2445.39 166.792H2413.4ZM2465.65 176.59V126.162H2479.69V165.28H2499.07V126.162H2513.12V176.59H2465.65ZM2507 186.892V173.42L2509.95 176.59H2499.07V165.28H2520.04V186.892H2507ZM2526.78 176.59V126.162H2540.83V155.77L2561.65 126.162H2575.05V176.59H2561V147.053L2540.25 176.59H2526.78ZM2614.05 176.59V160.957L2617.43 163.911H2604.68C2600.17 163.911 2596.28 163.166 2593.01 161.678C2589.74 160.189 2587.22 158.052 2585.45 155.266C2583.72 152.48 2582.85 149.167 2582.85 145.324C2582.85 141.338 2583.76 137.928 2585.59 135.095C2587.46 132.213 2590.08 130.004 2593.44 128.467C2596.85 126.93 2600.84 126.162 2605.4 126.162H2628.09V176.59H2614.05ZM2583 176.59L2595.6 158.364H2609.94L2597.98 176.59H2583ZM2614.05 156.419V133.87L2617.43 137.4H2605.69C2602.9 137.4 2600.79 138.048 2599.35 139.345C2597.96 140.594 2597.26 142.515 2597.26 145.108C2597.26 147.654 2597.96 149.599 2599.35 150.944C2600.79 152.24 2602.86 152.889 2605.54 152.889H2617.43L2614.05 156.419Z" fill="#F3F3F5"/>
<path d="M476.177 178C474.827 178.56 474.277 179.69 474.597 181.65C474.867 183.31 475.777 184.56 477.237 184.33C478.537 184.12 478.777 182.97 478.807 181.72C478.807 181.21 478.877 179.26 478.897 178.72C479.037 176.22 480.007 174.3 482.747 173.85C485.307 173.44 487.907 175.07 488.587 179.22C489.207 183.04 487.587 185.79 484.747 186.55L484.307 183.86C486.197 183.19 486.567 181.46 486.247 179.49C485.927 177.52 484.857 176.25 483.297 176.49C481.737 176.73 481.397 177.8 481.297 179.26L481.207 182.42C481.137 184.95 480.057 186.64 477.697 187.03C475.177 187.44 472.837 185.73 472.237 182.03C471.687 178.68 473.067 176.14 475.707 175.35L476.177 178Z" fill="#19345D"/>
<path d="M482.371 161.31L482.471 167.86L487.081 169.24V171.93L471.031 166.88L470.961 162.58L486.891 157V159.75L482.371 161.31ZM480.071 167.14L479.991 162.14L473.641 164.27V165.27L480.071 167.14Z" fill="#19345D"/>
<path d="M471.203 152.8L471.843 148.6L479.223 146.38L479.303 145.85L472.923 141.57L473.573 137.35L489.353 139.76L488.963 142.28L476.343 140.35L476.263 140.88L482.673 145.28L482.253 147.98L474.833 150.23L474.753 150.76L487.373 152.69L486.983 155.21L471.203 152.8Z" fill="#19345D"/>
<path d="M477.377 124.699C478.467 121.409 480.787 120.109 483.657 121.059C484.486 121.275 485.233 121.731 485.804 122.369C486.375 123.008 486.745 123.801 486.867 124.649L494.267 124.519L493.407 127.109L486.627 127.239C486.527 127.698 486.394 128.15 486.227 128.589L485.057 132.109L491.057 134.109L490.207 136.659L475.047 131.659L477.377 124.699ZM482.847 131.379L484.177 127.379C484.897 125.239 484.257 124.159 482.817 123.679C481.377 123.199 480.217 123.679 479.507 125.829L478.177 129.829L482.847 131.379Z" fill="#19345D"/>
<path d="M487.093 103.23L496.093 107.91C499.533 109.69 500.443 112.75 498.523 116.47C496.603 120.19 493.573 121.21 490.133 119.47L481.133 114.8L482.363 112.41L491.363 117.06C492.253 117.472 493.268 117.524 494.196 117.206C495.124 116.888 495.893 116.225 496.344 115.354C496.795 114.483 496.893 113.471 496.617 112.53C496.341 111.589 495.713 110.79 494.863 110.3L485.863 105.66L487.093 103.23Z" fill="#19345D"/>
<path d="M490.188 98.3292L491.777 96.1692L497.587 100.459L496.147 90.2592L497.997 87.6992L499.107 94.5492L511.228 96.6492L509.538 98.9392L499.997 97.3792L499.677 97.8092L500.337 102.489L504.617 105.649L502.997 107.809L490.188 98.3292Z" fill="#19345D"/>
<path d="M506.219 78.8396L508.219 77.0596L512.999 82.4796L513.749 72.1996L516.129 70.0996L515.779 76.9996L527.179 81.6196L525.049 83.4896L515.999 79.9996L515.599 80.3596L515.249 85.0696L518.769 89.0696L516.769 90.8396L506.219 78.8396Z" fill="#19345D"/>
<path d="M534.129 71.7402L528.609 75.2702L529.849 79.9102L527.589 81.3502L523.469 65.0502L527.089 62.7402L540.159 73.3302L537.839 74.8102L534.129 71.7402ZM527.999 72.8402L532.219 70.1502L527.079 65.8702L526.259 66.3902L527.999 72.8402Z" fill="#19345D"/>
<path d="M546.85 56.1091L542.85 68.8491L543.08 69.3591L551.48 65.5691L552.48 67.7991L541 72.9991L539.77 70.2591L543.77 57.5091L543.54 56.9991L536 60.3791L535 58.1591L545.62 53.3691L546.85 56.1091Z" fill="#19345D"/>
<path d="M557.77 56.6195L559.53 48.9995L562.3 48.1895L559.67 59.4595L561.31 65.1095L558.74 65.8595L557.09 60.2095L548.82 52.1195L551.59 51.3095L557.17 56.7895L557.77 56.6195Z" fill="#19345D"/>
<path d="M579.74 45.5801L581.83 61.4101L578.09 61.9101L570 50.8001L569.46 50.8701L571.05 62.8701L568.52 63.2101L566.43 47.3801L570.17 46.8801L578.26 58.0001L578.8 57.9301L577.21 45.9301L579.74 45.5801Z" fill="#19345D"/>
<path d="M594.378 56.9299L587.828 56.7699L586.268 61.3199L583.578 61.2599L589.268 45.4199L593.558 45.5299L598.488 61.6199L595.738 61.5499L594.378 56.9299ZM588.648 54.3999L593.648 54.5199L591.768 48.0999H590.768L588.648 54.3999Z" fill="#19345D"/>
<path d="M567.28 261.3C567.38 260.3 566.74 259.74 565.66 259.38C564.58 259.02 563.78 259.17 563.5 260C563.28 260.68 563.7 261.09 564.5 261.51L566.89 262.75C569.02 263.86 570.31 265.67 569.47 268.2C568.68 270.58 566.14 272.1 562.21 270.8C558.52 269.57 556.98 267.13 557.68 264.08L561.35 265.29C561.12 266.7 562.14 267.45 563.35 267.85C564.56 268.25 565.51 267.99 565.77 267.21C566.03 266.43 565.55 265.87 564.62 265.37L562.17 264.09C559.81 262.85 559.17 261.04 559.82 258.95C560.61 256.57 563.19 255.24 566.69 256.4C569.79 257.4 571.59 259.76 570.96 262.51L567.28 261.3Z" fill="#A78368"/>
<path d="M580.742 260.149C584.132 260.749 585.802 262.819 585.272 265.809C584.742 268.799 582.462 270.259 579.062 269.669L575.932 269.109L575.082 273.929L571.352 273.269L573.882 258.939L580.742 260.149ZM579.142 266.389C580.612 266.649 581.262 266.229 581.442 265.199C581.622 264.169 581.152 263.579 579.692 263.319L577.042 262.849L576.502 265.919L579.142 266.389Z" fill="#A78368"/>
<path d="M598.713 276.12L594.943 275.97L594.033 272.16L589.153 271.97L588.003 275.69L584.312 275.55L589.242 261.18L594.963 261.41L598.713 276.12ZM590.083 269L593.312 269.13L592.312 264.87H591.412L590.083 269Z" fill="#A78368"/>
<path d="M606.904 260.699C610.244 260.329 612.374 261.859 612.704 264.789C612.845 265.58 612.76 266.394 612.46 267.139C612.159 267.883 611.654 268.528 611.004 268.999L613.724 274.589L610.004 274.999L607.644 270.139L604.644 270.469L605.204 275.529L601.434 275.949L599.844 261.489L606.904 260.699ZM607.084 267.009C608.484 266.859 608.964 266.249 608.864 265.299C608.764 264.349 608.154 263.879 606.754 264.029L603.964 264.339L604.294 267.339L607.084 267.009Z" fill="#A78368"/>
<path d="M625.133 260.25L620.913 261.33L623.683 272.18L620.003 273.12L617.233 262.26L613.033 263.34L612.203 260.1L624.303 257L625.133 260.25Z" fill="#A78368"/>
<path d="M641.583 265.721L638.083 267.121L635.703 264.001L631.162 265.821L631.593 269.701L628.172 271.071L626.812 256.001L632.133 253.881L641.583 265.721ZM630.812 262.721L633.812 261.521L631.162 258.031L630.333 258.371L630.812 262.721Z" fill="#A78368"/>
<path d="M647.294 262.511L644.004 264.441L636.594 251.911L639.864 249.981L642.554 254.541L644.194 247.421L647.904 245.221L646.644 251.161L655.934 257.381L652.424 259.451L646.194 255.331L645.704 255.621L644.984 258.621L647.294 262.511Z" fill="#A78368"/>
<path d="M660.893 253.43L657.893 255.72L649.133 244.11L652.133 241.83L660.893 253.43Z" fill="#A78368"/>
<path d="M673.468 242.18L670.718 244.77L667.368 242.77L663.798 246.12L665.628 249.58L662.938 252.11L656.148 238.51L660.318 234.59L673.468 242.18ZM662.358 243.37L664.718 241.15L660.998 238.87L660.348 239.49L662.358 243.37Z" fill="#A78368"/>
<path d="M667.797 226.001C670.537 222.491 674.227 222.471 677.677 225.171C681.127 227.871 682.007 231.451 679.257 234.961L675.257 240.071L663.797 231.071L667.797 226.001ZM676.247 233.391C677.817 231.391 677.017 229.561 675.247 228.221C673.477 226.881 671.567 226.531 669.997 228.541L668.717 230.181L674.917 235.021L676.247 233.391Z" fill="#A78368"/>
<path d="M691.511 215.61L689.661 218.9L685.851 217.97L683.461 222.23L686.231 224.99L684.421 228.2L673.891 217.27L676.691 212.27L691.511 215.61ZM681.261 220.06L682.851 217.24L678.611 216.18L678.171 216.97L681.261 220.06Z" fill="#A78368"/>
<path d="M680.469 204.66L681.669 200.92L692.949 201.63L693.219 200.78L683.609 194.84L684.779 191.18L697.399 199.46L695.569 205.2L680.469 204.66Z" fill="#A78368"/>
<path d="M699.737 189.439L698.977 193.149L684.727 190.249L685.477 186.539L699.737 189.439Z" fill="#A78368"/>
<path d="M700.811 182.289L700.311 186.049L685.891 184.119L686.391 180.369L700.811 182.289Z" fill="#A78368"/>
<path d="M701.397 175.131L701.147 178.921L686.617 177.921L686.867 174.141L701.397 175.131Z" fill="#A78368"/>
<path d="M578 138.189C578.3 138.189 602.27 89.9492 602.27 89.9492H665.67L657.79 107.549L603.18 107.249L594 125.749L621.9 121.499C606.036 123.032 590.875 128.796 578 138.189Z" fill="#19345D"/>
<path d="M523.852 187.9C520.442 197.52 517.203 205.07 514.153 210.4C507.303 222.34 503.152 225.32 501.402 226.47C496.585 229.524 491.025 231.204 485.323 231.33C484.823 232.44 484.322 233.55 483.812 234.67H537.003C533.93 232.727 531.222 230.26 529.003 227.38C523.203 219.8 522.673 211.52 522.333 206.15C522.083 202.09 523.322 195.23 523.852 187.9Z" fill="#19345D"/>
<path d="M567.391 130.15L586.201 90L543.001 99.51L543.601 105.1C552.011 102.78 557.281 102.1 558.921 105.1C559.831 107.153 560.096 109.433 559.681 111.64C559.211 115.08 556.511 120.96 555.771 122.82C545.711 141.88 538.341 157.82 528.281 176.87C536.265 164.14 545.516 152.25 555.891 141.38C559.731 137.33 563.591 133.59 567.391 130.15Z" fill="#19345D"/>
<path d="M587.816 201.149C577.316 208.249 573.356 210.149 558.596 211.149C554.596 211.299 546.666 208.029 543.726 205.419C540.106 201.419 538.366 191.749 539.126 186.419C542.406 168.319 555.706 158.419 567.126 144.109C561.416 148.779 539.256 167.209 533.316 187.579C531.316 194.579 531.646 203.069 535.756 209.479C540.176 216.479 553.066 220.099 560.196 218.809C571.416 216.809 576.286 213.809 585.026 206.749C587.012 205.161 588.644 203.175 589.816 200.919C590.396 199.749 590.346 199.439 587.816 201.149Z" fill="url(#paint3_linear_1_2)"/>
<path d="M582.002 216.87C569.832 223.26 550.242 229.11 538.552 219.75C531.552 213.57 530.192 203.15 530.282 194.08L529.782 193.98C528.54 197.196 527.749 200.568 527.432 204C526.722 211.27 528.222 219.1 533.252 224.92C538.282 230.74 545.892 233.64 553.602 234.24C557.452 234.57 570.562 226.64 582.002 216.87Z" fill="url(#paint4_linear_1_2)"/>
<path d="M633.417 151.611C635.115 156.866 635.537 162.45 634.648 167.901C636.788 165.381 644.257 155.721 644.797 151.721C640.797 141.891 632.047 135.391 620.797 137.331L620.688 137.831C625.997 141.811 631.307 145.771 633.417 151.611Z" fill="url(#paint5_linear_1_2)"/>
<path d="M649.827 144.17C654.197 150.66 654.937 154.25 653.827 161.9C656.157 168.56 655.827 177.38 658.227 184.34C663.887 175.49 669.387 153.22 661.987 140.68C656.547 131.46 647.697 127.57 644.837 126.31C615.907 113.57 581.707 140.31 579.367 142.21C586.359 138.812 593.717 136.225 601.297 134.5C612.057 132.08 622.097 129.81 633.377 133.82C637.327 135.22 644.997 137 649.827 144.17Z" fill="url(#paint6_linear_1_2)"/>
<path d="M552.001 201.001C542.511 192.601 544.781 174.631 557.061 160.851C558.388 159.363 559.804 157.957 561.301 156.641C558.706 158.597 556.311 160.804 554.151 163.231C541.871 177.001 539.451 194.851 548.751 203.091C555.431 209.011 566.351 208.351 576.511 202.401C567.361 206.491 558.001 206.321 552.001 201.001Z" fill="url(#paint7_linear_1_2)"/>
<path d="M564.229 181.32C564.959 180.81 565.999 180.07 567.339 179.1C568.679 178.13 569.589 177.48 570.069 177.15L571.209 176.33C571.819 175.89 572.339 175.53 572.749 175.25C573.159 174.97 573.669 174.65 574.259 174.25C574.754 173.931 575.276 173.657 575.819 173.43C576.181 173.264 576.571 173.169 576.969 173.15C577.231 173.145 577.488 173.225 577.699 173.38C577.816 173.473 577.908 173.594 577.965 173.732C578.023 173.871 578.045 174.021 578.029 174.17C577.997 174.69 577.816 175.189 577.509 175.61C577.088 176.25 576.587 176.835 576.019 177.35C575.359 177.98 574.689 178.57 574.019 179.15C573.349 179.73 572.509 180.36 571.559 181.07C571.349 180.917 571.177 180.717 571.058 180.486C570.938 180.255 570.873 180 570.869 179.74C570.887 179.381 570.994 179.031 571.181 178.724C571.368 178.417 571.628 178.161 571.939 177.98L573.149 177.11C573.649 176.76 574.049 176.48 574.339 176.26C574.629 176.04 574.939 175.81 575.259 175.55C575.52 175.357 575.758 175.136 575.969 174.89C576.096 174.752 576.173 174.576 576.189 174.39C576.189 174.2 576.109 174.11 575.949 174.11C575.043 174.373 574.197 174.811 573.459 175.4C572.366 176.1 571.32 176.872 570.329 177.71C569.599 178.33 569.009 179.71 568.539 181.71C568.413 182.345 568.352 182.992 568.359 183.64C568.336 183.95 568.381 184.262 568.489 184.554C568.598 184.845 568.769 185.11 568.989 185.33C569.489 185.739 570.125 185.943 570.769 185.9C570.044 186.58 569.094 186.972 568.099 187C567.432 187.033 566.774 186.823 566.249 186.41C566.018 186.204 565.836 185.949 565.717 185.663C565.597 185.378 565.544 185.069 565.559 184.76C565.605 183.793 565.861 182.848 566.309 181.99C566.781 180.989 567.361 180.043 568.039 179.17L567.039 179.9L565.869 180.79L564.869 181.59C564.521 181.876 564.187 182.18 563.869 182.5C563.629 182.73 563.405 182.977 563.199 183.24C562.623 183.995 562.117 184.802 561.689 185.65C561.157 186.646 560.68 187.671 560.259 188.72C559.773 188.552 559.353 188.234 559.06 187.811C558.767 187.389 558.616 186.884 558.629 186.37C558.681 185.297 559.027 184.259 559.629 183.37C559.859 182.99 560.239 182.45 560.779 181.74C561.319 181.03 561.779 180.41 562.219 179.88L562.869 179.08C562.689 179.2 562.249 179.55 561.529 180.08C560.809 180.61 560.209 181.08 559.729 181.46C558.688 182.192 557.686 182.98 556.729 183.82C555.798 184.73 554.795 185.562 553.729 186.31C553.035 186.76 552.227 187.003 551.399 187.01C551.101 187.024 550.803 186.978 550.523 186.875C550.243 186.772 549.987 186.614 549.769 186.41C549.561 186.196 549.4 185.942 549.295 185.664C549.19 185.385 549.144 185.087 549.159 184.79C549.172 184.092 549.279 183.399 549.479 182.73C549.612 183.158 549.878 183.532 550.237 183.8C550.596 184.068 551.031 184.215 551.479 184.22C552.096 184.174 552.686 183.952 553.179 183.58C553.871 183.116 554.505 182.572 555.069 181.96C555.689 181.3 556.259 180.63 556.779 179.96C557.299 179.29 557.779 178.64 558.169 178.01C558.987 176.96 559.539 175.729 559.779 174.42C559.779 173.99 559.559 173.78 559.109 173.78C557.971 173.909 556.925 174.471 556.189 175.35C555.101 176.421 554.178 177.648 553.449 178.99C553.325 178.922 553.217 178.828 553.132 178.715C553.047 178.602 552.987 178.472 552.956 178.334C552.925 178.196 552.923 178.053 552.951 177.914C552.979 177.776 553.037 177.645 553.119 177.53C553.516 176.842 554.019 176.221 554.609 175.69C555.359 174.994 556.196 174.399 557.099 173.92C557.906 173.451 558.816 173.186 559.749 173.15C559.991 173.115 560.238 173.136 560.47 173.213C560.702 173.29 560.913 173.42 561.086 173.593C561.259 173.766 561.389 173.977 561.466 174.209C561.543 174.441 561.565 174.688 561.529 174.93C561.459 176.096 561.117 177.23 560.529 178.24C559.9 179.484 559.139 180.658 558.259 181.74C559.499 180.86 560.519 180.11 561.329 179.49C562.139 178.87 562.729 178.38 563.109 178.05L564.889 176.42C565.586 175.705 566.237 174.947 566.839 174.15C567.446 173.419 567.96 172.616 568.369 171.76C568.578 171.888 568.748 172.072 568.859 172.291C568.97 172.51 569.019 172.755 568.999 173C568.959 173.588 568.802 174.162 568.539 174.69C568.156 175.52 567.708 176.319 567.199 177.08C566.619 177.97 566.129 178.71 565.729 179.28C565.329 179.85 564.819 180.51 564.229 181.32Z" fill="#19345D"/>
<path d="M579.793 173.25C580.103 173.232 580.413 173.232 580.723 173.25C581.963 173.25 582.593 173.69 582.593 174.58C582.584 174.922 582.516 175.26 582.393 175.58C581.967 176.592 581.42 177.549 580.763 178.43C579.943 179.583 579.143 180.623 578.363 181.55C577.573 182.48 576.863 183.38 576.233 184.24C575.785 184.75 575.466 185.36 575.303 186.02C575.303 186.33 575.473 186.48 575.823 186.48C576.172 186.462 576.513 186.37 576.823 186.21C577.271 185.996 577.691 185.727 578.073 185.41C578.523 185.053 578.933 184.647 579.293 184.2C579.69 183.709 580.007 183.159 580.233 182.57C580.479 181.963 580.604 181.314 580.603 180.66C580.606 180.339 580.538 180.021 580.403 179.73C580.765 179.611 581.142 179.547 581.523 179.54C581.973 179.524 582.42 179.62 582.823 179.82C583.63 179.593 584.416 179.299 585.173 178.94C585.975 178.572 586.738 178.126 587.453 177.61C588.301 176.407 589.262 175.289 590.323 174.27C590.872 173.706 591.601 173.352 592.383 173.27C592.728 173.263 593.07 173.335 593.383 173.48C593.737 173.703 594.049 173.987 594.303 174.32C593.178 175.147 592.149 176.096 591.233 177.15C590.288 178.202 589.426 179.325 588.653 180.51C588.014 181.469 587.443 182.471 586.943 183.51C586.587 184.163 586.362 184.88 586.283 185.62C586.283 186.19 586.613 186.47 587.283 186.47C588.119 186.4 588.92 186.107 589.603 185.62C590.557 185.014 591.445 184.31 592.253 183.52C593.113 182.69 593.893 181.87 594.603 181.05C595.207 180.379 595.768 179.671 596.283 178.93C596.351 178.949 596.412 178.987 596.458 179.041C596.504 179.094 596.534 179.16 596.543 179.23C596.563 179.313 596.566 179.4 596.55 179.484C596.535 179.569 596.502 179.649 596.453 179.72C595.889 180.481 595.285 181.212 594.643 181.91C593.868 182.764 593.047 183.575 592.183 184.34C591.296 185.146 590.315 185.844 589.263 186.42C588.422 186.918 587.47 187.199 586.493 187.24C586.193 187.257 585.892 187.209 585.613 187.098C585.333 186.988 585.08 186.818 584.873 186.6C584.483 186.152 584.276 185.573 584.293 184.98C584.293 183.186 585.14 181.03 586.833 178.51C585.699 179.261 584.477 179.869 583.193 180.32C583.251 180.462 583.275 180.616 583.263 180.77C583.263 181.77 582.413 182.99 580.813 184.47C580.037 185.208 579.166 185.841 578.223 186.35C577.386 186.772 576.46 186.987 575.523 186.98C574.313 186.98 573.703 186.48 573.703 185.46C573.771 184.822 573.986 184.209 574.333 183.67C574.753 182.9 575.413 181.85 576.333 180.49C577.253 179.13 577.893 178.14 578.333 177.49C578.752 176.79 579.114 176.058 579.413 175.3C579.709 174.659 579.839 173.954 579.793 173.25Z" fill="#19345D"/>
<path d="M604.293 173C606.233 173 607.203 173.58 607.203 174.66C607.158 175.206 607.001 175.737 606.743 176.22C606.441 176.834 606.107 177.431 605.743 178.01C605.416 178.537 604.916 179.317 604.243 180.35C603.413 181.62 602.773 182.66 602.353 183.47C601.982 184.076 601.76 184.762 601.703 185.47C601.699 185.621 601.726 185.771 601.781 185.912C601.835 186.053 601.918 186.181 602.023 186.29C602.142 186.4 602.282 186.486 602.435 186.541C602.588 186.596 602.751 186.619 602.913 186.61C603.635 186.611 604.337 186.376 604.913 185.94C604.597 186.347 604.202 186.687 603.753 186.94C603.255 187.248 602.679 187.408 602.093 187.4C601.414 187.434 600.747 187.213 600.223 186.78C599.989 186.571 599.805 186.313 599.684 186.024C599.562 185.735 599.508 185.423 599.523 185.11C599.638 183.632 600.149 182.212 601.003 181C600.453 181.6 599.813 182.23 599.073 182.91C598.333 183.59 597.553 184.24 596.723 184.91C595.964 185.528 595.147 186.07 594.283 186.53C593.675 186.897 592.99 187.116 592.283 187.17C591.874 187.187 591.473 187.048 591.163 186.78C591.009 186.637 590.89 186.461 590.814 186.265C590.738 186.07 590.707 185.859 590.723 185.65C590.764 185.019 590.967 184.409 591.313 183.88C591.696 183.202 592.134 182.556 592.623 181.95C593.101 181.35 593.539 180.719 593.933 180.06C594.267 179.562 594.47 178.987 594.523 178.39C594.527 178.353 594.527 178.317 594.523 178.28C594.521 178.243 594.521 178.207 594.523 178.17C595.032 178.354 595.501 178.636 595.903 179C596.2 179.372 596.344 179.845 596.303 180.32C596.263 180.933 596.059 181.523 595.713 182.03C595.346 182.667 594.917 183.267 594.433 183.82L593.143 185.3C592.891 185.542 592.693 185.835 592.563 186.16C592.563 186.33 592.653 186.41 592.833 186.41C593.835 186.184 594.766 185.713 595.543 185.04C596.906 184.072 598.202 183.012 599.423 181.87C600.478 180.935 601.452 179.911 602.333 178.81C602.929 178.004 603.416 177.123 603.783 176.19C604.145 175.362 604.349 174.473 604.383 173.57C604.381 173.377 604.35 173.185 604.293 173Z" fill="#19345D"/>
<path d="M585.108 232.69C583.99 232.791 582.864 232.605 581.838 232.15C591.288 230.77 598.948 226.67 605.978 220.61C603.848 220.16 601.956 218.947 600.658 217.2C599.568 218.62 598.458 219.89 597.558 221.3C596.198 223.43 594.678 225.09 591.828 224.45C591.594 224.387 591.348 224.389 591.115 224.456C590.882 224.523 590.673 224.652 590.508 224.83C585.708 229.83 579.418 230.31 573.068 230.58C571.318 230.65 569.568 230.58 567.818 230.58C567.648 229.49 568.548 229.52 569.008 229.26C577.838 224.17 585.088 221.05 590.358 211.01C590.878 209.84 591.468 208.6 592.118 207.32C599.624 192.457 612.229 180.793 627.628 174.46C641.998 168.6 645.168 154.76 645.828 155.7C652.318 165 654.248 179.78 650.558 193.12C647.158 203.36 644.018 204.81 639.008 209.35C637.148 211.04 634.428 209.83 631.548 210.87C636.548 206.59 631.448 204.45 630.758 201.42C631.758 200.78 632.698 203.42 634.088 201.62C635.718 199.47 637.378 197.36 637.208 194.62C637.058 192.19 634.918 191.27 632.958 190.62C630.998 189.97 630.028 191.35 629.288 192.9C629.018 193.47 628.798 194.07 628.478 194.63C627.218 196.89 625.968 197.18 623.818 195.77C621.496 194.064 619.47 191.99 617.818 189.63C617.178 188.82 616.638 187.92 616.018 187.09C613.418 183.62 612.298 183.56 609.418 186.7C606.538 189.84 603.908 193.46 602.678 197.79C602.295 199.267 602.18 200.802 602.338 202.32C604.338 197.14 607.178 192.68 612.218 189.77C613.435 192.638 615.182 195.25 617.368 197.47C617.606 197.742 617.784 198.06 617.893 198.404C618.001 198.748 618.037 199.111 617.998 199.47C618.068 201.47 617.628 203.62 619.208 205.41C617.368 204.79 616.208 203.83 616.548 201.78C616.721 201.077 616.697 200.34 616.478 199.65C616.078 198.75 615.478 197.65 614.318 199.12C610.768 203.83 607.188 208.52 603.678 213.26C602.518 214.82 603.138 216.74 604.868 217.81C607.168 219.22 609.708 219.24 612.268 219.24C616.09 219.155 619.827 220.379 622.858 222.71C619.558 223.04 618.378 225.61 616.578 227.5C614.448 229.74 612.488 232.22 609.378 233.24C612.508 229.8 614.648 225.53 618.768 222.43C615.888 221.98 613.388 221.66 610.908 221.2C610.297 221.053 609.658 221.068 609.055 221.243C608.452 221.418 607.905 221.748 607.468 222.2C601.068 227.79 593.998 232.1 585.108 232.69Z" fill="#19345D"/>
<path d="M639.662 211.621C644.142 208.191 654.232 195.481 657.342 189.811C657.742 191.571 646.762 222.451 625.342 232.581C616.642 235.581 602.982 237.401 602.172 237.191C607.166 235.73 612.077 233.998 616.882 232.001C622.252 230.631 626.662 228.001 629.342 222.911C629.73 222.366 629.889 221.691 629.784 221.031C629.679 220.371 629.319 219.778 628.782 219.381C625.886 216.521 622.499 214.208 618.782 212.551C621.052 211.151 623.282 208.931 625.062 209.551C626.842 210.171 627.522 213.271 627.662 215.551C627.802 217.831 629.142 218.201 630.662 217.931C634.612 217.251 637.442 214.821 639.662 211.621Z" fill="#A78368"/>
<path d="M585.109 232.69C593.959 232.1 601.109 227.79 607.489 222.11C607.926 221.658 608.473 221.329 609.076 221.153C609.68 220.978 610.318 220.963 610.929 221.11C613.409 221.57 615.929 221.89 618.789 222.34C614.669 225.44 612.529 229.71 609.399 233.15C602.812 235.326 595.986 236.692 589.069 237.22C580.019 237.91 571.519 235.7 563.289 232.08C566.399 232.59 569.519 233.15 572.639 233.6C576.446 234.077 580.3 234.013 584.089 233.41C584.609 233.39 584.999 233.28 585.109 232.69Z" fill="#A78368"/>
<path d="M639.659 211.621C637.439 214.821 634.659 217.251 630.659 217.961C629.099 218.231 627.749 217.751 627.659 215.581C627.569 213.411 626.979 210.181 625.059 209.581C623.139 208.981 621.059 211.211 618.779 212.581C622.496 214.238 625.883 216.551 628.779 219.411C629.317 219.808 629.676 220.401 629.781 221.061C629.886 221.721 629.727 222.396 629.339 222.941C626.659 228.031 622.249 230.661 616.879 232.031C620.129 229.471 623.569 227.181 626.599 224.351C628.539 222.541 628.719 221.681 626.929 219.581C624.054 216.348 620.183 214.166 615.929 213.381C613.592 213.044 611.386 212.092 609.539 210.621C611.607 210.378 613.702 210.678 615.619 211.491C615.976 211.699 616.383 211.804 616.796 211.796C617.209 211.787 617.612 211.664 617.959 211.441C620.178 210.02 622.58 208.906 625.099 208.131C626.399 207.761 626.949 206.441 628.829 205.721C626.149 209.241 628.829 212.281 628.529 215.461C628.419 216.701 629.859 216.541 630.789 216.341C633.369 215.821 635.399 214.241 637.479 212.781C638.119 212.301 638.589 211.371 639.659 211.621Z" fill="#19345D"/>
<path d="M507.803 85.8293L503.422 90.9902L505.221 92.5176L509.602 87.3566L507.803 85.8293Z" fill="#19345D"/>
<defs>
<linearGradient id="paint0_linear_1_2" x1="-10.7578" y1="448.351" x2="687.54" y2="-32.2148" gradientUnits="userSpaceOnUse">
<stop stop-color="white" stop-opacity="0"/>
<stop offset="0.8" stop-color="white"/>
</linearGradient>
<linearGradient id="paint1_linear_1_2" x1="3144.16" y1="-299.916" x2="2245.77" y2="317.074" gradientUnits="userSpaceOnUse">
<stop stop-color="white" stop-opacity="0"/>
<stop offset="0.8" stop-color="white"/>
</linearGradient>
<linearGradient id="paint2_linear_1_2" x1="1987" y1="152.42" x2="2684.21" y2="152.42" gradientUnits="userSpaceOnUse">
<stop stop-color="#F4BD55"/>
<stop offset="1" stop-color="#E86247"/>
</linearGradient>
<linearGradient id="paint3_linear_1_2" x1="532.056" y1="181.649" x2="599.446" y2="181.649" gradientUnits="userSpaceOnUse">
<stop stop-color="#19345D"/>
<stop offset="1" stop-color="#A78368"/>
</linearGradient>
<linearGradient id="paint4_linear_1_2" x1="527.262" y1="214.13" x2="590.252" y2="214.13" gradientUnits="userSpaceOnUse">
<stop stop-color="#19345D"/>
<stop offset="1" stop-color="#A78368"/>
</linearGradient>
<linearGradient id="paint5_linear_1_2" x1="549.038" y1="152.441" x2="646.807" y2="152.441" gradientUnits="userSpaceOnUse">
<stop stop-color="#19345D"/>
<stop offset="1" stop-color="#A78368"/>
</linearGradient>
<linearGradient id="paint6_linear_1_2" x1="579.397" y1="153.61" x2="665.597" y2="153.61" gradientUnits="userSpaceOnUse">
<stop stop-color="#19345D"/>
<stop offset="1" stop-color="#A78368"/>
</linearGradient>
<linearGradient id="paint7_linear_1_2" x1="542.082" y1="185.595" x2="572.433" y2="180.013" gradientUnits="userSpaceOnUse">
<stop stop-color="#19345D"/>
<stop offset="1" stop-color="#A78368"/>
</linearGradient>
</defs>
</svg>
