<svg width="28" height="28" viewBox="0 0 28 28" fill="none" xmlns="http://www.w3.org/2000/svg">
<g clip-path="url(#clip0_2_25)">
<path d="M16.8817 19.285C16.7178 19.1209 16.6258 18.8985 16.6258 18.6667C16.6258 18.4348 16.7178 18.2124 16.8817 18.0483L20.055 14.875H5.83333C5.60126 14.875 5.3787 14.7828 5.21461 14.6187C5.05052 14.4546 4.95833 14.2321 4.95833 14C4.95833 13.7679 5.05052 13.5454 5.21461 13.3813C5.3787 13.2172 5.60126 13.125 5.83333 13.125H20.0527L16.8817 9.95283C16.8004 9.87155 16.7359 9.77506 16.6919 9.66887C16.6479 9.56268 16.6253 9.44886 16.6253 9.33391C16.6253 9.10177 16.7175 8.87914 16.8817 8.715C17.0458 8.55085 17.2684 8.45863 17.5006 8.45863C17.7327 8.45863 17.9553 8.55085 18.1195 8.715L22.7862 13.3817C22.8674 13.4628 22.9319 13.5592 22.9759 13.6653C23.0199 13.7714 23.0425 13.8851 23.0425 14C23.0425 14.1149 23.0199 14.2286 22.9759 14.3347C22.9319 14.4408 22.8674 14.5372 22.7862 14.6183L18.1195 19.285C18.0382 19.3663 17.9418 19.4308 17.8356 19.4748C17.7294 19.5188 17.6155 19.5415 17.5006 19.5415C17.3856 19.5415 17.2718 19.5188 17.1656 19.4748C17.0594 19.4308 16.9629 19.3663 16.8817 19.285Z" fill="white"/>
</g>
<defs>
<clipPath id="clip0_2_25">
<rect width="28" height="28" fill="white"/>
</clipPath>
</defs>
</svg>
